<svg xmlns="http://www.w3.org/2000/svg" x="0px" y="0px"
width="30" height="30"
viewBox="0 0 172 172"
style=" fill:#000000;"><g fill="none" fill-rule="nonzero" stroke="none" stroke-width="1" stroke-linecap="butt" stroke-linejoin="miter" stroke-miterlimit="10" stroke-dasharray="" stroke-dashoffset="0" font-family="none" font-weight="none" font-size="none" text-anchor="none" style="mix-blend-mode: normal"><path d="M0,172v-172h172v172z" fill="none"></path><g fill="#00b894"><path d="M130.88125,17.2c-2.93403,0 -5.86843,1.12051 -8.10729,3.35938l-13.84062,13.84063l28.66667,28.66667l13.84062,-13.84063c4.47773,-4.47773 4.47773,-11.73685 0,-16.21458l-12.45208,-12.45208c-2.23887,-2.23887 -5.17326,-3.35937 -8.10729,-3.35937zM97.46667,45.86667l-67.31068,67.31067c0,0 5.26186,-0.47147 7.22266,1.48933c1.9608,1.9608 0.34669,14.792 2.75469,17.2c2.408,2.408 15.15831,0.71299 16.98724,2.54192c1.82894,1.82893 1.70209,7.43542 1.70209,7.43542l67.31067,-67.31067zM22.93333,131.86667l-5.40859,15.31875c-0.21262,0.60453 -0.32239,1.24042 -0.32474,1.88125c0,3.16643 2.5669,5.73333 5.73333,5.73333c0.64083,-0.00235 1.27672,-0.11212 1.88125,-0.32474c0.0187,-0.00737 0.03737,-0.01483 0.05599,-0.02239l0.14557,-0.04479c0.01122,-0.00743 0.02242,-0.01489 0.03359,-0.0224l15.08359,-5.31901l-8.6,-8.6z"></path></g></g></svg>